<?xml version="1.0" encoding="UTF-8" standalone="no" ?>
<!DOCTYPE svg PUBLIC "-//W3C//DTD SVG 1.1//EN" "http://www.w3.org/Graphics/SVG/1.1/DTD/svg11.dtd">
<svg xmlns="http://www.w3.org/2000/svg" xmlns:xlink="http://www.w3.org/1999/xlink" version="1.1" width="1080"
	height="300" viewBox="0 0 1080 300" xml:space="preserve">
	<desc>Created with Fabric.js 5.2.4</desc>
	<defs>
	</defs>
	<g transform="matrix(1 0 0 1 540 150)" id="292c9a3c-5cb3-4da3-9919-3445ca2c73c5">
		<rect
			style="stroke: none; stroke-width: 1; stroke-dasharray: none; stroke-linecap: butt; stroke-dashoffset: 0; stroke-linejoin: miter; stroke-miterlimit: 4; fill: rgb(255,255,255); fill-rule: nonzero; opacity: 1; visibility: hidden;"
			vector-effect="non-scaling-stroke" x="-540" y="-150" rx="0" ry="0" width="1080" height="300" />
	</g>
	<g transform="matrix(Infinity NaN NaN Infinity 0 0)" id="4678744f-7b71-4d39-9cb2-d75f2c947940">
	</g>
	<g transform="matrix(1.11 0 0 1.11 540 150)">
		<g style="" vector-effect="non-scaling-stroke">
			<g transform="matrix(1 0 0 1 -248.28 57.9)">
				<path
					style="stroke: rgb(0,0,0); stroke-width: 0.00957518; stroke-dasharray: none; stroke-linecap: butt; stroke-dashoffset: 0; stroke-linejoin: miter; stroke-miterlimit: 4; fill: rgb(255,153,0); fill-rule: nonzero; opacity: 1;"
					vector-effect="non-scaling-stroke" transform=" translate(-237.56, -155.73)"
					d="M 380.724 149.019 C 345.72499999999997 174.817 294.995 188.58100000000002 251.31799999999998 188.58100000000002 C 190.075 188.58100000000002 134.94099999999997 165.92900000000003 93.22999999999999 128.25600000000003 C 89.95299999999999 125.29400000000003 92.889 121.25600000000003 96.82199999999999 123.56400000000002 C 141.837 149.75300000000001 197.495 165.51100000000002 254.988 165.51100000000002 C 293.762 165.51100000000002 336.418 157.48800000000003 375.63800000000003 140.84000000000003 C 381.56300000000005 138.32300000000004 386.51800000000003 144.71900000000002 380.72400000000005 149.01900000000003"
					stroke-linecap="round" />
			</g>
			<g transform="matrix(1 0 0 1 -104.36 48.26)">
				<path
					style="stroke: rgb(0,0,0); stroke-width: 0.00957518; stroke-dasharray: none; stroke-linecap: butt; stroke-dashoffset: 0; stroke-linejoin: miter; stroke-miterlimit: 4; fill: rgb(255,153,0); fill-rule: nonzero; opacity: 1;"
					vector-effect="non-scaling-stroke" transform=" translate(-381.48, -146.09)"
					d="M 395.275 132.372 C 390.818 126.65700000000001 365.702 129.67100000000002 354.428 131.00900000000001 C 350.99399999999997 131.429 350.46999999999997 128.44000000000003 353.563 126.29000000000002 C 373.567 112.21100000000001 406.39 116.27400000000002 410.21799999999996 120.99300000000002 C 414.04499999999996 125.73900000000002 409.222 158.64100000000002 390.424 174.34500000000003 C 387.53999999999996 176.75700000000003 384.787 175.47200000000004 386.072 172.27500000000003 C 390.294 161.73500000000004 399.758 138.11300000000003 395.275 132.37200000000004"
					stroke-linecap="round" />
			</g>
			<g transform="matrix(1 0 0 1 0 -37.14)">
				<path
					style="stroke: rgb(0,0,0); stroke-width: 0.00957518; stroke-dasharray: none; stroke-linecap: butt; stroke-dashoffset: 0; stroke-linejoin: miter; stroke-miterlimit: 4; fill: rgb(255,255,255); fill-rule: nonzero; opacity: 1;"
					vector-effect="non-scaling-stroke" transform=" translate(-485.84, -60.69)"
					d="M 355.216 26.901 L 355.216 13.216 C 355.216 11.145 356.789 9.756 358.676 9.756 L 419.94599999999997 9.756 C 421.912 9.756 423.48499999999996 11.172 423.48499999999996 13.216000000000001 L 423.48499999999996 24.935000000000002 C 423.45899999999995 26.901000000000003 421.80699999999996 29.471000000000004 418.871 33.534000000000006 L 387.12199999999996 78.863 C 398.91999999999996 78.574 411.37299999999993 80.331 422.06899999999996 86.361 C 424.48099999999994 87.724 425.13599999999997 89.717 425.31999999999994 91.683 L 425.31999999999994 106.286 C 425.31999999999994 108.278 423.11799999999994 110.612 420.8109999999999 109.405 C 401.9599999999999 99.522 376.92299999999994 98.447 356.08199999999994 109.51 C 353.9579999999999 110.664 351.7289999999999 108.357 351.7289999999999 106.364 L 351.7289999999999 92.496 C 351.7289999999999 90.267 351.75499999999994 86.466 353.9839999999999 83.08399999999999 L 390.7659999999999 30.334999999999987 L 358.7549999999999 30.334999999999987 C 356.7879999999999 30.334999999999987 355.2159999999999 28.945999999999987 355.2159999999999 26.900999999999986 M 131.717 112.29 L 113.07600000000002 112.29 C 111.29400000000003 112.159 109.87800000000003 110.82100000000001 109.74700000000003 109.11800000000001 L 109.74700000000003 13.452 C 109.74700000000003 11.538 111.34700000000002 10.018 113.33900000000003 10.018 L 130.72100000000003 10.018 C 132.53000000000003 10.096 133.97200000000004 11.486 134.10300000000004 13.216000000000001 L 134.10300000000004 25.721000000000004 L 134.44400000000005 25.721000000000004 C 138.97900000000004 13.635000000000003 147.50000000000006 7.998000000000005 158.98300000000006 7.998000000000005 C 170.64900000000006 7.998000000000005 177.93800000000005 13.635000000000005 183.18100000000007 25.721000000000004 C 187.69000000000005 13.635000000000003 197.94100000000006 7.998000000000005 208.92600000000007 7.998000000000005 C 216.73800000000008 7.998000000000005 225.28500000000008 11.223000000000004 230.50200000000007 18.458000000000006 C 236.40000000000006 26.507000000000005 235.19400000000007 38.199000000000005 235.19400000000007 48.45 L 235.16900000000007 108.827 C 235.16900000000007 110.741 233.56900000000007 112.288 231.57700000000006 112.288 L 212.96300000000005 112.288 C 211.10200000000006 112.157 209.60800000000006 110.66199999999999 209.60800000000006 108.827 L 209.60800000000006 58.125 C 209.60800000000006 54.088 209.97400000000007 44.021 209.08400000000006 40.193 C 207.69400000000007 33.769999999999996 203.52500000000006 31.961 198.12500000000006 31.961 C 193.61600000000004 31.961 188.89600000000007 34.976 186.98200000000006 39.8 C 185.06900000000005 44.623999999999995 185.25300000000004 52.69799999999999 185.25300000000004 58.125 L 185.25300000000004 108.82900000000001 C 185.25300000000004 110.74300000000001 183.65300000000005 112.29 181.66100000000003 112.29 L 163.04700000000003 112.29 C 161.15900000000002 112.159 159.69200000000004 110.664 159.69200000000004 108.82900000000001 L 159.66600000000003 58.12500000000001 C 159.66600000000003 47.455000000000005 161.42300000000003 31.75100000000001 148.18300000000002 31.75100000000001 C 134.78700000000003 31.75100000000001 135.31100000000004 47.06200000000001 135.31100000000004 58.12500000000001 L 135.31100000000004 108.82900000000001 C 135.30800000000005 110.74300000000001 133.70900000000003 112.29 131.71700000000004 112.29 M 476.232 7.999 C 503.891 7.999 518.861 31.750999999999998 518.861 61.954 C 518.861 91.133 502.318 114.283 476.23199999999997 114.283 C 449.07199999999995 114.283 434.28499999999997 90.531 434.28499999999997 60.932 C 434.28499999999997 31.148000000000003 449.256 7.999000000000002 476.23199999999997 7.999000000000002 M 476.38899999999995 27.53 C 462.65199999999993 27.53 461.78599999999994 46.249 461.78599999999994 57.915000000000006 C 461.78599999999994 69.608 461.6019999999999 94.566 476.23099999999994 94.566 C 490.67599999999993 94.566 491.35799999999995 74.432 491.35799999999995 62.162 C 491.35799999999995 54.087 491.01699999999994 44.439 488.5799999999999 36.784 C 486.48299999999995 30.125 482.3139999999999 27.53 476.38899999999995 27.53 M 554.725 112.29 L 536.163 112.29 C 534.302 112.159 532.808 110.665 532.808 108.82900000000001 L 532.782 13.138000000000005 C 532.9390000000001 11.382000000000005 534.486 10.018000000000004 536.374 10.018000000000004 L 553.6510000000001 10.018000000000004 C 555.2760000000001 10.096000000000004 556.613 11.198000000000004 556.98 12.692000000000004 L 556.98 27.32 L 557.321 27.32 C 562.538 14.238 569.852 7.998000000000001 582.725 7.998000000000001 C 591.088 7.998000000000001 599.2420000000001 11.013000000000002 604.485 19.271 C 609.361 26.926000000000002 609.361 39.799 609.361 49.053 L 609.361 109.273 C 609.152 110.951 607.605 112.289 605.769 112.289 L 587.077 112.289 C 585.373 112.158 583.958 110.899 583.774 109.273 L 583.774 57.312 C 583.774 46.852 584.979 31.540999999999997 572.107 31.540999999999997 C 567.572 31.540999999999997 563.403 34.581999999999994 561.332 39.196 C 558.711 45.042 558.37 50.863 558.37 57.312 L 558.37 108.828 C 558.344 110.74300000000001 556.718 112.29 554.725 112.29 M 621.028 104.686 C 621.028 99.86200000000001 625.144 95.982 630.2040000000001 95.982 C 635.2640000000001 95.982 639.3800000000001 99.861 639.3800000000001 104.686 C 639.3800000000001 109.48400000000001 635.2640000000001 113.41600000000001 630.2040000000001 113.41600000000001 C 625.144 113.41600000000001 621.028 109.48400000000001 621.028 104.686 M 818.519 112.315 C 816.579 112.237 815.058 110.743 815.058 108.855 L 815.058 13.189 C 815.163 11.485 816.605 10.148 818.388 10.043 L 825.231 10.043 C 827.119 10.043 828.639 11.405999999999999 828.796 13.189 L 828.796 27.136 C 833.672 16.073 842.743 7.420999999999999 854.2 7.420999999999999 L 855.589 7.420999999999999 C 867.754 7.420999999999999 876.642 16.387 879.9440000000001 29.416999999999998 C 885.109 16.543999999999997 894.8090000000001 7.420999999999999 907.6030000000001 7.420999999999999 L 909.0190000000001 7.420999999999999 C 918.0640000000001 7.420999999999999 926.7670000000002 13.241 931.2770000000002 22.103 C 935.6290000000001 30.571 935.4710000000001 41.844 935.4710000000001 51.309 L 935.4450000000002 108.85499999999999 C 935.4710000000001 110.68999999999998 933.9770000000002 112.18399999999998 932.1160000000002 112.31499999999998 L 923.9360000000003 112.31499999999998 C 922.1540000000002 112.23699999999998 920.7110000000002 110.97899999999998 920.4750000000003 109.32699999999998 L 920.4750000000003 51.309 C 920.4750000000003 44.465999999999994 920.8160000000003 37.20399999999999 918.0370000000003 30.964999999999996 C 915.2050000000003 24.593999999999994 909.7780000000002 20.608999999999995 903.9580000000003 20.319999999999997 C 897.4570000000003 20.634999999999998 891.4790000000003 25.379999999999995 887.5990000000003 31.776999999999997 C 882.5660000000003 40.035 882.7490000000003 47.480999999999995 882.7490000000003 57.129 L 882.7490000000003 109.37899999999999 C 882.5130000000003 110.951 881.1240000000003 112.184 879.4190000000002 112.315 L 871.2920000000003 112.315 C 869.3530000000003 112.237 867.8060000000003 110.743 867.8060000000003 108.855 L 867.7530000000003 47.481 C 867.7530000000003 41.844 867.4120000000003 35.211 864.8160000000003 30.151000000000003 C 861.8010000000003 24.383000000000003 856.4010000000003 20.608000000000004 850.7380000000003 20.319000000000003 C 844.8660000000003 20.660000000000004 838.9400000000003 25.143 835.4270000000002 30.361000000000004 C 830.8920000000003 37.02 830.0270000000003 45.252 830.0270000000003 53.720000000000006 L 830.0270000000003 108.85400000000001 C 830.0270000000003 110.68900000000001 828.5320000000003 112.183 826.6710000000003 112.31400000000001 L 818.5190000000002 112.31400000000001 M 762.363 114.308 C 735.9100000000001 114.308 724.0600000000001 87.331 724.0600000000001 60.35300000000001 C 724.0600000000001 31.98700000000001 737.9810000000001 7.4210000000000065 764.618 7.4210000000000065 L 766.033 7.4210000000000065 C 791.9350000000001 7.4210000000000065 804.835 33.586000000000006 804.835 60.56300000000001 C 804.835 89.13900000000001 790.546 114.308 763.753 114.308 L 762.363 114.308 M 764.3030000000001 101.22500000000001 C 773.0060000000001 100.938 779.8750000000001 95.537 783.9390000000001 86.54400000000001 C 787.5840000000001 78.46900000000001 788.292 69.21400000000001 788.292 60.35300000000001 C 788.292 50.70600000000001 787.243 40.638000000000005 782.707 32.38000000000001 C 778.644 25.17000000000001 771.67 20.582000000000008 764.277 20.320000000000007 C 756.0450000000001 20.60900000000001 748.677 26.19300000000001 744.981 34.79200000000001 C 741.652 42.23800000000001 740.629 52.12200000000001 740.629 60.35400000000001 C 740.629 69.60900000000001 741.8340000000001 80.305 745.662 88.35400000000001 C 749.385 95.98200000000001 756.543 100.93700000000001 764.303 101.22500000000001 M 679.701 100.806 C 691.578 100.44 697.817 90.923 700.3870000000001 78.6 C 700.9110000000001 77.053 702.091 75.87299999999999 703.822 75.87299999999999 L 711.6610000000001 75.847 C 713.522 75.92599999999999 715.2260000000001 77.342 715.0690000000001 79.07199999999999 C 711.451 100.07199999999999 698.7880000000001 114.30699999999999 680.7510000000001 114.30699999999999 L 679.335 114.30699999999999 C 653.066 114.30699999999999 641.74 87.93199999999999 641.74 61.164999999999985 C 641.74 34.606999999999985 653.223 7.4199999999999875 679.492 7.4199999999999875 L 680.908 7.4199999999999875 C 699.155 7.4199999999999875 712.159 21.471999999999987 714.99 42.47199999999999 C 714.99 44.04499999999999 713.522 45.408999999999985 711.792 45.591999999999985 L 703.586 45.48699999999999 C 701.856 45.25099999999999 700.729 43.78299999999999 700.466 42.13199999999999 C 698.5 30.41299999999999 691.7620000000001 21.07999999999999 680.541 20.71299999999999 C 662.686 21.29099999999999 657.6 43.25999999999999 657.6 60.16999999999999 C 657.6 76.451 661.847 100.22899999999998 679.701 100.80599999999998 M 339.564 94.75 C 336.156 90.031 332.538 86.203 332.538 77.473 L 332.538 48.425 C 332.538 36.129 333.403 24.83 324.332 16.361999999999995 C 317.175 9.492999999999995 305.325 7.080999999999994 296.254 7.080999999999994 C 278.531 7.080999999999994 258.711 13.686999999999994 254.56900000000002 35.605 C 254.12300000000002 37.937999999999995 255.82700000000003 39.169999999999995 257.34700000000004 39.510999999999996 L 275.41 41.45099999999999 C 277.11400000000003 41.37199999999999 278.34700000000004 39.721 278.661 38.04299999999999 C 280.208 30.49299999999999 286.526 26.84899999999999 293.63100000000003 26.84899999999999 C 297.485 26.84899999999999 301.83700000000005 28.26499999999999 304.09200000000004 31.69899999999999 C 306.71400000000006 35.526999999999994 306.37300000000005 40.76999999999999 306.37300000000005 45.19999999999999 L 306.37300000000005 47.61199999999999 C 295.571 48.84399999999999 281.44000000000005 49.630999999999986 271.32000000000005 54.08799999999999 C 259.62800000000004 59.121999999999986 251.44800000000004 69.42499999999998 251.44800000000004 84.55199999999999 C 251.44800000000004 103.92699999999999 263.63800000000003 113.6 279.343 113.6 C 292.582 113.6 299.845 110.481 310.07 100.04499999999999 C 313.452 104.948 314.579 107.33399999999999 320.766 112.47299999999998 C 322.156 113.20699999999998 323.93800000000005 113.12799999999999 325.17 112.02799999999999 L 325.196 112.08 C 328.91900000000004 108.776 335.682 102.878 339.48400000000004 99.706 C 341.00600000000003 98.447 340.744 96.428 339.564 94.75 z M 302.886 86.361 C 299.923 91.605 295.204 94.82900000000001 289.988 94.82900000000001 C 282.831 94.82900000000001 278.635 89.376 278.635 81.32700000000001 C 278.635 65.44000000000001 292.871 62.55600000000001 306.373 62.55600000000001 L 306.373 66.59300000000002 C 306.37399999999997 73.85500000000002 306.557 79.91200000000002 302.88599999999997 86.36100000000002 z M 95.196 94.75 C 91.788 90.031 88.17099999999999 86.203 88.17099999999999 77.473 L 88.17099999999999 48.425 C 88.17099999999999 36.129 89.03599999999999 24.83 79.96499999999999 16.361999999999995 C 72.80799999999999 9.492999999999995 60.956999999999994 7.080999999999994 51.886999999999986 7.080999999999994 C 34.16399999999999 7.080999999999994 14.369999999999983 13.686999999999994 10.201999999999984 35.605 C 9.781999999999984 37.937999999999995 11.459999999999983 39.169999999999995 12.979999999999984 39.510999999999996 L 31.069999999999986 41.45099999999999 C 32.74799999999998 41.37199999999999 33.97999999999999 39.721 34.29499999999999 38.04299999999999 C 35.841999999999985 30.49299999999999 42.18699999999999 26.84899999999999 49.29099999999999 26.84899999999999 C 53.11899999999999 26.84899999999999 57.47099999999999 28.26499999999999 59.75199999999999 31.69899999999999 C 62.34699999999999 35.526999999999994 62.005999999999986 40.76999999999999 62.005999999999986 45.19999999999999 L 62.005999999999986 47.61199999999999 C 51.204999999999984 48.84399999999999 37.073999999999984 49.630999999999986 26.953999999999986 54.08799999999999 C 15.288 59.122 7.082 69.425 7.082 84.552 C 7.082 103.927 19.299 113.60000000000001 34.977 113.60000000000001 C 48.242999999999995 113.60000000000001 55.479 110.48100000000001 65.704 100.04500000000002 C 69.112 104.94800000000002 70.213 107.33400000000002 76.39999999999999 112.47300000000001 C 77.78999999999999 113.20700000000001 79.57199999999999 113.12800000000001 80.80399999999999 112.02800000000002 L 80.85699999999999 112.08000000000003 C 84.57999999999998 108.77600000000002 91.34299999999999 102.87800000000003 95.14499999999998 99.70600000000003 C 96.66499999999998 98.44700000000003 96.40199999999999 96.42800000000003 95.19599999999998 94.75000000000003 z M 58.519 86.361 C 55.556 91.605 50.864 94.82900000000001 45.620999999999995 94.82900000000001 C 38.464 94.82900000000001 34.294999999999995 89.376 34.294999999999995 81.32700000000001 C 34.294999999999995 65.44000000000001 48.529999999999994 62.55600000000001 62.00599999999999 62.55600000000001 L 62.00599999999999 66.59300000000002 C 62.00599999999999 73.85500000000002 62.18899999999999 79.91200000000002 58.51899999999999 86.36100000000002 z M 954.821 11.066 C 959.303 11.066 963.027 14.684000000000001 963.027 19.246000000000002 C 963.027 23.703000000000003 959.356 27.452 954.821 27.452 C 950.311 27.452 946.6410000000001 23.782000000000004 946.6410000000001 19.246000000000002 C 946.6410000000001 14.631000000000002 950.364 11.066000000000003 954.821 11.066000000000003 M 954.847 9.493000000000002 C 949.603 9.493000000000002 945.068 13.740000000000002 945.068 19.272000000000002 C 945.068 24.699 949.525 29.024 954.847 29.024 C 960.1949999999999 29.024 964.5989999999999 24.646 964.5989999999999 19.272 C 964.5989999999999 13.739999999999998 960.117 9.492999999999999 954.847 9.492999999999999 M 951.177 24.750999999999998 L 953.275 24.750999999999998 L 953.275 20.346999999999998 L 955.2139999999999 20.346999999999998 C 955.9749999999999 20.346999999999998 956.185 20.662 956.342 21.290999999999997 C 956.342 21.447999999999997 956.709 24.227999999999998 956.736 24.750999999999998 L 959.069 24.750999999999998 C 958.781 24.226999999999997 958.6229999999999 22.732 958.5179999999999 21.840999999999998 C 958.3079999999999 20.450999999999997 958.204 19.480999999999998 956.709 19.377 C 957.4689999999999 19.115 958.78 18.695 958.78 16.676 C 958.78 13.791999999999998 956.236 13.791999999999998 954.9259999999999 13.791999999999998 L 951.1769999999999 13.791999999999998 L 951.1769999999999 24.750999999999998 M 953.2209999999999 15.548999999999998 L 954.9779999999998 15.548999999999998 C 955.5539999999999 15.548999999999998 956.6029999999998 15.548999999999998 956.6029999999998 17.043 C 956.6029999999998 17.619999999999997 956.3409999999999 18.59 954.9249999999998 18.59 L 953.2209999999999 18.59 L 953.2209999999999 15.549"
					stroke-linecap="round" />
			</g>
		</g>
	</g>
</svg>