<!DOCTYPE svg PUBLIC "-//W3C//DTD SVG 1.1//EN" "http://www.w3.org/Graphics/SVG/1.1/DTD/svg11.dtd">
<!-- Uploaded to: SVG Repo, www.svgrepo.com, Transformed by: SVG Repo Mixer Tools -->
<svg width="256px" height="256px" viewBox="0 0 24.00 24.00" fill="none" xmlns="http://www.w3.org/2000/svg" stroke="#ffffff" stroke-width="0.00024000000000000003" transform="matrix(1, 0, 0, 1, 0, 0)">
<g id="SVGRepo_bgCarrier" stroke-width="0"/>
<g id="SVGRepo_tracerCarrier" stroke-linecap="round" stroke-linejoin="round" stroke="#CCCCCC" stroke-width="0.096"/>
<g id="SVGRepo_iconCarrier">
<path d="M6.707 2.293a1 1 0 0 1 0 1.414l-3 3a1 1 0 0 1-1.414-1.414l3-3a1 1 0 0 1 1.414 0ZM17.293 2.293a1 1 0 0 1 1.414 0l3 3a1 1 0 0 1-1.414 1.414l-3-3a1 1 0 0 1 0-1.414Z" fill="#ffffff"/>
<path fill-rule="evenodd" clip-rule="evenodd" d="M12 21a8 8 0 1 0 0-16 8 8 0 0 0 0 16Zm3.536-10.121a1 1 0 1 0-1.415-1.414L12 11.585l-2.121-2.12a1 1 0 0 0-1.415 1.414L10.586 13l-2.122 2.121a1 1 0 1 0 1.415 1.415L12 14.414l2.121 2.122a1 1 0 0 0 1.415-1.415l-2.122-2.12 2.122-2.122Z" fill="#ffffff"/>
</g>
</svg>