<!DOCTYPE svg PUBLIC "-//W3C//DTD SVG 1.1//EN" "http://www.w3.org/Graphics/SVG/1.1/DTD/svg11.dtd">
<!-- Uploaded to: SVG Repo, www.svgrepo.com, Transformed by: SVG Repo Mixer Tools -->
<svg version="1.1" id="Layer_1" xmlns="http://www.w3.org/2000/svg" xmlns:xlink="http://www.w3.org/1999/xlink" viewBox="0 0 512 512" xml:space="preserve" width="256px" height="256px" fill="#000000" stroke="#000000">
<g id="SVGRepo_bgCarrier" stroke-width="0"/>
<g id="SVGRepo_tracerCarrier" stroke-linecap="round" stroke-linejoin="round"/>
<g id="SVGRepo_iconCarrier"> <path d="M488,387.372H24c-13.24-0.04-23.96-10.76-24-24V133.668c0.04-13.24,10.76-23.96,24-24h464c13.24,0.04,23.96,10.76,24,24 v229.704C511.96,376.612,501.24,387.332,488,387.372z"/> <path style="fill:#303030;" d="M362.296,298.572H125.704c-4.416,0-8-3.584-8-8l24-116.296c0-4.416,3.584-8,8-8h236.584 c4.416,0,8,3.584,8,8l-24,116.296C370.288,294.988,366.712,298.564,362.296,298.572z"/> <g style="opacity:0.2;"> <path style="fill:#FFFFFF;" d="M295.056,166.276H152.32c-5.848,0.016-10.592,4.76-10.608,10.608l-24,111.072 c0.016,5.848,4.76,10.592,10.608,10.608h62.488L295.056,166.276z"/> </g> <path style="fill:#999999;" d="M359.68,301.22H128.32c-7.32-0.008-13.256-5.944-13.264-13.264l24-111.064 c0.008-7.32,5.944-13.256,13.264-13.264h231.36c7.32,0.008,13.256,5.944,13.264,13.264l-24,111.064 C372.936,295.276,367,301.212,359.68,301.22z M152.32,168.932c-4.416,0-8,3.584-8,8l-24,111.064c0.024,4.4,3.6,7.96,8,7.96h231.36 c4.384-0.024,7.936-3.576,7.96-7.96l24-111.064c0-4.4-3.56-7.976-7.96-8L152.32,168.932z"/> <g> <path style="fill:#E21B1B;" d="M198.472,189.676h8.984v45.728h-4.536v-41.256h-7.2L198.472,189.676z"/> <path style="fill:#E21B1B;" d="M229.344,204.004h-4.384c-0.016-4.152,1.608-8.144,4.52-11.112 c2.824-2.864,6.696-4.432,10.712-4.344c7.504-0.28,13.816,5.576,14.104,13.08c0.008,0.2,0.008,0.408,0.008,0.608 c0.008,2.552-0.632,5.056-1.864,7.288c-2.048,3.336-4.464,6.432-7.2,9.224l-11.392,12.272h21.096v4.416h-31.08l17.472-18.88 c2.576-2.584,4.888-5.416,6.912-8.448c1.04-1.752,1.592-3.76,1.6-5.8c0.024-2.52-1.024-4.928-2.872-6.64 c-1.88-1.84-4.416-2.84-7.048-2.784c-2.728-0.08-5.368,0.984-7.296,2.92C230.584,198.052,229.416,200.964,229.344,204.004z"/> <path style="fill:#E21B1B;" d="M266.896,200.716c2.136-0.024,3.88,1.688,3.904,3.824s-1.688,3.88-3.824,3.904 s-3.88-1.688-3.904-3.824c-0.008-1.032,0.392-2.024,1.12-2.76C264.896,201.116,265.872,200.7,266.896,200.716z M266.896,228.572 c2.128,0.024,3.84,1.76,3.816,3.896c-0.008,1-0.408,1.96-1.112,2.672c-1.464,1.496-3.856,1.52-5.352,0.056 c-0.016-0.016-0.04-0.04-0.056-0.056c-1.496-1.512-1.496-3.936,0-5.448C264.896,228.956,265.88,228.556,266.896,228.572z"/> <path style="fill:#E21B1B;" d="M276.912,212.556c-0.2-4.744,0.456-9.48,1.936-13.992c1.064-2.984,2.976-5.584,5.496-7.496 c2.304-1.68,5.08-2.576,7.928-2.552c2.888-0.024,5.712,0.872,8.048,2.568c2.6,1.96,4.584,4.624,5.696,7.688 c1.568,4.416,2.28,9.096,2.104,13.776c0.168,4.656-0.528,9.312-2.064,13.712c-1.128,3.056-3.112,5.728-5.712,7.688 c-2.344,1.704-5.176,2.616-8.08,2.6c-2.832,0.024-5.6-0.856-7.896-2.52c-2.52-1.912-4.424-4.52-5.48-7.504 C277.384,222.028,276.712,217.292,276.912,212.556z M281.232,212.636c-0.16,3.952,0.304,7.912,1.392,11.72 c0.728,2.368,2.152,4.472,4.08,6.024c3.312,2.72,8.08,2.736,11.408,0.04c1.912-1.56,3.304-3.656,4-6.024 c1.224-3.8,1.8-7.776,1.712-11.76c0.112-3.824-0.4-7.64-1.52-11.304c-0.744-2.504-2.208-4.728-4.208-6.4 c-3.312-2.72-8.088-2.72-11.4,0c-1.92,1.56-3.336,3.64-4.072,6C281.544,204.732,281.072,208.684,281.232,212.636z"/> <path style="fill:#E21B1B;" d="M312.192,212.556c-0.2-4.744,0.456-9.48,1.936-13.992c1.064-2.984,2.976-5.584,5.496-7.496 c2.304-1.68,5.08-2.576,7.928-2.552c2.888-0.024,5.712,0.872,8.048,2.568c2.6,1.96,4.584,4.624,5.696,7.688 c1.568,4.416,2.28,9.096,2.104,13.776c0.168,4.656-0.528,9.312-2.064,13.712c-1.128,3.056-3.112,5.728-5.712,7.688 c-2.344,1.704-5.176,2.616-8.08,2.6c-2.832,0.024-5.6-0.856-7.896-2.52c-2.52-1.912-4.424-4.52-5.48-7.504 C312.664,222.028,312,217.292,312.192,212.556z M316.512,212.636c-0.16,3.952,0.304,7.912,1.392,11.72 c0.728,2.368,2.152,4.472,4.08,6.024c3.312,2.72,8.08,2.736,11.408,0.04c1.912-1.56,3.304-3.656,4-6.024 c1.224-3.8,1.8-7.776,1.712-11.76c0.112-3.824-0.4-7.64-1.52-11.304c-0.744-2.504-2.208-4.728-4.208-6.4 c-3.312-2.72-8.088-2.72-11.4,0c-1.92,1.56-3.336,3.64-4.072,6C316.824,204.732,316.352,208.684,316.512,212.636z"/> </g> <g> <path style="fill:#FFFFFF;" d="M199.792,255.204h2.072l4.144,14.6l5.816-14.6h0.416l5.752,14.6l4.208-14.6h2.064l-5.864,20.288 h-0.376l-6.008-15.336l-6.136,15.336h-0.384L199.792,255.204z"/> <path style="fill:#FFFFFF;" d="M228,255.204h11.616v1.976h-9.6v6.352h9.504v1.992h-9.464v8h9.504v1.976H228V255.204z"/> <path style="fill:#FFFFFF;" d="M243.144,275.492v-20.288h4.208c2.224-0.104,4.448,0.144,6.6,0.728c1.896,0.64,3.52,1.904,4.6,3.584 c1.144,1.816,1.728,3.936,1.672,6.08c0.032,1.872-0.424,3.72-1.32,5.36c-0.784,1.448-1.968,2.632-3.416,3.416 c-1.848,0.824-3.872,1.2-5.896,1.096h-6.448V275.492z M245.096,273.572h2.344c1.952,0.088,3.912-0.088,5.824-0.52 c1.472-0.456,2.736-1.4,3.592-2.68c0.912-1.408,1.368-3.056,1.32-4.728c0.048-1.776-0.448-3.528-1.416-5.016 c-0.96-1.392-2.376-2.4-4-2.848c-2.056-0.472-4.168-0.664-6.272-0.584h-1.432L245.096,273.572z"/> <path style="fill:#FFFFFF;" d="M278.608,255.204h2.024v13.68c0.088,1.48-0.08,2.968-0.488,4.392 c-0.312,0.808-0.872,1.496-1.6,1.968c-0.832,0.512-1.8,0.768-2.776,0.736c-0.824,0-1.64-0.168-2.4-0.48 c-0.96-0.416-1.856-0.976-2.64-1.672l1.08-1.6c0.824,0.616,1.712,1.152,2.64,1.6c0.424,0.192,0.88,0.296,1.344,0.304 c0.576,0.008,1.144-0.176,1.6-0.528c0.472-0.344,0.816-0.832,0.992-1.392c0.24-1.104,0.328-2.232,0.28-3.36L278.608,255.204z"/> <path style="fill:#FFFFFF;" d="M293.848,255.204l9.448,20.272h-2.184l-3.2-6.672H289.2l-3.2,6.672h-2.256l9.6-20.272 L293.848,255.204z M293.6,259.508l-3.48,7.344h6.936L293.6,259.508z"/> <path style="fill:#FFFFFF;" d="M306.456,275.492v-20.288h0.448L320.4,270.74v-15.536h2v20.272h-0.456l-13.392-15.344v15.344 L306.456,275.492z"/> <path style="fill:#FFFFFF;" d="M337.896,255.204h4v20.272h-2.008v-18.272h-3.2L337.896,255.204z"/> </g> <path style="fill:#E6E5E5;" d="M186.088,235.404h-25.216c-0.328-0.008-0.592-0.272-0.6-0.6v-19.2c0.008-0.328,0.272-0.592,0.6-0.6 h25.216c0.328,0.008,0.592,0.272,0.6,0.6v19.2C186.68,235.132,186.416,235.396,186.088,235.404z"/> <g> <path style="fill:#303030;" d="M164.712,220.644h1.8c0.696-0.032,1.392,0.024,2.08,0.144c0.504,0.12,0.944,0.4,1.272,0.8 c0.336,0.424,0.504,0.952,0.488,1.496c0.024,0.536-0.144,1.064-0.48,1.48c-0.344,0.408-0.808,0.688-1.328,0.8 c-0.76,0.12-1.52,0.168-2.288,0.144H165.6v4.2h-0.912v-9.064H164.712z M165.624,221.532v3.056h1.52 c0.456,0.024,0.92-0.032,1.36-0.168c0.28-0.104,0.512-0.296,0.672-0.552c0.328-0.512,0.328-1.16,0-1.672 c-0.152-0.24-0.376-0.424-0.64-0.536c-0.432-0.12-0.872-0.176-1.32-0.152L165.624,221.532z"/> <path style="fill:#303030;" d="M171.744,229.676l1.296-9.04h0.144l3.68,7.416l3.624-7.416h0.144l1.304,9.04h-0.888l-0.888-6.472 l-3.2,6.456h-0.224l-3.2-6.504l-0.888,6.504L171.744,229.676z"/> </g> <rect x="39.128" y="387.364" style="fill:#AAAAAA;" width="433.76" height="14.968"/> </g>
</svg>